<?xml version="1.0" encoding="utf-8"?>
<svg version="1.1" xmlns="http://www.w3.org/2000/svg" xmlns:xlink="http://www.w3.org/1999/xlink" x="0px" y="0px" viewBox="0 0 1000 1000" enable-background="new 0 0 1000 1000" xml:space="preserve">
	<g><path fill="#ffffff" d="M495.9,990c-3.9-5.6-7.2-11.6-11.7-16.6c-40.1-44.6-80.4-89-120.6-133.6c-4.6-5-8.7-10.4-15.9-19c33.1,0,62.5,0,93.1,0c0-88.9,0-175.3,0-262.9c-86.8,0-173.1,0-261.6,0c0,30.6,0,60.1,0,94.9C120.9,600.2,66.3,550.9,10,500.1c55.9-50.6,110.5-100,168.6-152.5c0,32.5,0,60.7,0,90.2c88.6,0,174.9,0,262.3,0c0-85.6,0-170.8,0-258.4c-30.1,0-59.6,0-94.4,0C399.5,120.8,448.7,66.3,499.5,10c50.7,56.2,100,110.8,152.8,169.2c-33.8,0-62.6,0-92.6,0c0,87.6,0,172.6,0,258.9c86.6,0,172.4,0,260.3,0c0-29.1,0-57.5,0-91.8c59,53.3,113.9,102.9,170.1,153.8c-56.2,50.7-110.8,100.1-169,152.5c0-33.9,0-63.3,0-94.3c-88,0-173.7,0-261.4,0c-0.4,4.9-1.3,10.4-1.3,15.8c-0.1,75.9,0.4,151.9-0.5,227.8c-0.2,16.2,5.8,19.3,20,18.7c22.9-0.9,45.9-0.2,74.9-0.2C599.7,879.2,549.7,934.6,499.8,990C498.5,990,497.2,990,495.9,990z"/></g>
</svg>